#define icon_width 64
#define icon_height 64
static unsigned char icon_bits[] = {
   0x00, 0x00, 0x00, 0x00, 0x00, 0x00, 0x00, 0x00, 0x00, 0x00, 0x00, 0x00,
   0x00, 0x00, 0x00, 0x00, 0x00, 0x00, 0x00, 0x00, 0x00, 0x00, 0x00, 0x00,
   0x00, 0x00, 0x00, 0x00, 0x00, 0x00, 0x00, 0x00, 0x00, 0x00, 0x00, 0x00,
   0x00, 0x00, 0x00, 0x00, 0x00, 0x00, 0x00, 0x00, 0x00, 0x00, 0x00, 0x00,
   0x00, 0x00, 0x00, 0x00, 0x00, 0x00, 0x00, 0x00, 0x00, 0x00, 0x00, 0x00,
   0x00, 0x00, 0x00, 0x00, 0x00, 0x00, 0x1f, 0x00, 0x00, 0x00, 0x00, 0x00,
   0x00, 0x80, 0x3f, 0x00, 0x00, 0x00, 0x00, 0x00, 0x00, 0xc0, 0x7f, 0x00,
   0x00, 0x00, 0x00, 0x00, 0x00, 0xe0, 0x7f, 0x00, 0x00, 0x00, 0x00, 0x00,
   0x00, 0xf0, 0xfb, 0x00, 0x00, 0x00, 0x00, 0x00, 0x00, 0xf0, 0xf0, 0x00,
   0x00, 0x00, 0x00, 0x00, 0x00, 0xf8, 0xf0, 0x00, 0x00, 0x00, 0x00, 0x00,
   0x00, 0x78, 0xf0, 0x00, 0x00, 0x00, 0x00, 0x00, 0x00, 0x3c, 0xf0, 0x00,
   0x00, 0x00, 0x00, 0x00, 0x00, 0x3c, 0xf0, 0x00, 0x00, 0x00, 0x00, 0x00,
   0x00, 0x3e, 0xf0, 0x00, 0x00, 0x00, 0x00, 0x00, 0x00, 0x1e, 0xf0, 0x00,
   0x00, 0x00, 0x00, 0x00, 0x00, 0x1e, 0xf0, 0xe0, 0x07, 0x00, 0x00, 0x00,
   0x00, 0x1e, 0xf0, 0xf8, 0x0f, 0x00, 0x00, 0x00, 0x00, 0x1f, 0xf0, 0xfc,
   0x1f, 0x00, 0x00, 0x00, 0x00, 0x0f, 0x78, 0xfc, 0x1f, 0x00, 0x00, 0x00,
   0x00, 0x0f, 0x78, 0x3e, 0x3e, 0x00, 0x00, 0x00, 0x00, 0x0f, 0x78, 0x1e,
   0x3c, 0x00, 0x00, 0x00, 0x00, 0x0f, 0x7c, 0x1f, 0x3c, 0x00, 0x00, 0x00,
   0x00, 0x0f, 0x3c, 0x0f, 0x3c, 0x00, 0x00, 0x00, 0x00, 0x0f, 0x3c, 0x0f,
   0x3e, 0x1c, 0xe0, 0x00, 0x00, 0x0f, 0x3e, 0x0f, 0x1e, 0x3e, 0xf8, 0x00,
   0x00, 0x0f, 0x1e, 0x0f, 0x1f, 0x3f, 0xfc, 0x00, 0x00, 0x0f, 0x1f, 0x8f,
   0x8f, 0x3f, 0xff, 0x00, 0x00, 0x1f, 0x0f, 0xcf, 0xc7, 0xbf, 0x3f, 0x00,
   0x00, 0x9e, 0x0f, 0xff, 0xe7, 0xff, 0x0f, 0x00, 0x00, 0x9e, 0x07, 0xfe,
   0xfb, 0xfd, 0x07, 0x00, 0x00, 0xfe, 0x07, 0xfe, 0xfe, 0xfc, 0x03, 0x00,
   0x00, 0xfc, 0x83, 0xff, 0x7f, 0xfc, 0x00, 0x00, 0x00, 0xfc, 0xf3, 0xff,
   0x3f, 0x78, 0x00, 0x00, 0x00, 0xf8, 0xff, 0xff, 0x0f, 0x00, 0x00, 0x00,
   0x00, 0xf8, 0xff, 0xe3, 0x03, 0x00, 0x00, 0x00, 0x00, 0xfc, 0xff, 0x00,
   0x00, 0x00, 0x00, 0x00, 0x00, 0xfc, 0x1f, 0x00, 0x00, 0x00, 0x00, 0x00,
   0x00, 0x3e, 0x00, 0x00, 0x00, 0x00, 0x00, 0x00, 0x00, 0x1e, 0x00, 0x00,
   0x00, 0x00, 0x00, 0x00, 0x00, 0x08, 0x00, 0x00, 0x00, 0x00, 0x00, 0x00,
   0x00, 0x00, 0x00, 0x00, 0x00, 0x00, 0x00, 0x00, 0x00, 0x00, 0x00, 0x00,
   0x00, 0x00, 0x00, 0x00, 0x00, 0x00, 0x00, 0x00, 0x00, 0x00, 0x00, 0x00,
   0x00, 0x00, 0x00, 0x00, 0x00, 0x00, 0x00, 0x00, 0x00, 0x00, 0x00, 0x00,
   0x00, 0x00, 0x00, 0x00, 0x00, 0x00, 0x00, 0x00, 0x00, 0x00, 0x00, 0x00,
   0x00, 0x00, 0x00, 0x00, 0x00, 0x00, 0x00, 0x00, 0x00, 0xff, 0xff, 0xff,
   0xff, 0xff, 0xff, 0x00, 0x00, 0xff, 0xff, 0xff, 0xff, 0xff, 0xff, 0x00,
   0x00, 0xff, 0xff, 0xff, 0xff, 0xff, 0xff, 0x00, 0x00, 0xff, 0xff, 0xff,
   0xff, 0xff, 0xff, 0x00, 0x00, 0x00, 0x00, 0x00, 0x00, 0x00, 0x00, 0x00,
   0x00, 0x00, 0x00, 0x00, 0x00, 0x00, 0x00, 0x00, 0x00, 0x00, 0x00, 0x00,
   0x00, 0x00, 0x00, 0x00, 0x00, 0x00, 0x00, 0x00, 0x00, 0x00, 0x00, 0x00,
   0x00, 0x00, 0x00, 0x00, 0x00, 0x00, 0x00, 0x00, 0x00, 0x00, 0x00, 0x00,
   0x00, 0x00, 0x00, 0x00, 0x00, 0x00, 0x00, 0x00, 0x00, 0x00, 0x00, 0x00,
   0x00, 0x00, 0x00, 0x00, 0x00, 0x00, 0x00, 0x00 };
